<!DOCTYPE svg PUBLIC "-//W3C//DTD SVG 1.1//EN" "http://www.w3.org/Graphics/SVG/1.1/DTD/svg11.dtd">
<svg version="1.1" id="Layer_1" xmlns="http://www.w3.org/2000/svg" xmlns:xlink="http://www.w3.org/1999/xlink" x="0px" y="0px"
	 viewBox="0 0 145.3 111.1" enable-background="new 0 0 145.3 111.1" xml:space="preserve">
<g>
	<path fill="#4b67ca" d="M82.4,21.2V15c0-6.8-5.6-12.4-12.4-12.4H14.2C7.4,2.6,1.8,8.1,1.8,15v37.2c0,6.8,5.6,12.4,12.4,12.4h15.6
		l-0.1,21.4c0,0,2.2,0.7,3.4,0c0.1-0.1,18.3-19.6,18.3-19.6v-1.8v-5.6V39.8c0-10.3,8.3-18.6,18.6-18.6H82.4z"/>
	<path fill="#4b67ca" d="M131.9,30.5H73.1c-6.8,0-12.4,5.5-12.4,12.4v34.1c0,6.8,5.5,12.4,12.4,12.4h23.7c2.9,3,20.6,20.8,22.5,21.5
		c2,0.7,3.3,0,3.3,0l0-21.5h9.3c6.8,0,12.4-5.5,12.4-12.4V42.8C144.3,36,138.7,30.5,131.9,30.5z"/>
</g>
</svg>
